# vtk DataFile Version 3.0
AeroSolver3D Surface
ASCII
DATASET UNSTRUCTURED_GRID
POINTS 617 double
0 0 0
0.0010273 0.00563178 0
0.0010273 0.00563178 2.5
0.0010273 -0.00563178 0
0.0010273 -0.00563178 2.5
0 0 2.5
0.00410499 0.0110996 0
0.00922042 0.0163907 0
0.00410499 0.0110996 2.5
0.0163526 0.0214881 0
0.0163526 0.0214881 2.5
0.00922042 0.0163907 2.5
0.0254721 0.0263713 0
0.0254721 0.0263713 2.5
0.0365416 0.031017 0
0.0495156 0.0353996 0
0.0495156 0.0353996 2.5
0.0365416 0.031017 2.5
0.0643406 0.0394929 0
0.0809559 0.0432707 0
0.0809559 0.0432707 2.5
0.0643406 0.0394929 2.5
0.0992932 0.0467079 0
0.0992932 0.0467079 2.5
0.119277 0.0497815 0
0.140825 0.0524719 0
0.119277 0.0497815 2.5
0.16385 0.0547631 0
0.16385 0.0547631 2.5
0.140825 0.0524719 2.5
0.188255 0.0566435 0
0.188255 0.0566435 1.66667
0.213942 0.0581069 0
0.213942 0.0581069 1.66667
0.240804 0.0591517 0
0.240804 0.0591517 1.66667
0.268731 0.0597819 0
0.268731 0.0597819 1.66667
0.297608 0.0600063 0
0.327317 0.0598385 0
0.297608 0.0600063 1.66667
0.357736 0.0592963 0
0.357736 0.0592963 1.25
0.327317 0.0598385 1.66667
0.38874 0.0584011 0
0.4202 0.0571776 0
0.4202 0.0571776 1.25
0.38874 0.0584011 1.25
0.451988 0.0556523 0
0.451988 0.0556523 1
0.483974 0.053854 0
0.516026 0.0518119 0
0.516026 0.0518119 1
0.483974 0.053854 1
0.548012 0.049556 0
0.548012 0.049556 1
0.5798 0.0471163 0
0.5798 0.0471163 1
0.61126 0.0445222 0
0.61126 0.0445222 1
0.642264 0.0418028 0
0.672683 0.038986 0
0.642264 0.0418028 1
0.702392 0.0360993 0
0.672683 0.038986 1
0.731269 0.0331692 0
0.702392 0.0360993 1
0.759196 0.0302214 0
0.759196 0.0302214 1
0.731269 0.0331692 1
0.786058 0.0272814 0
0.811745 0.024374 0
0.786058 0.0272814 1
0.83615 0.0215239 0
0.83615 0.0215239 1
0.811745 0.024374 1
0.859175 0.0187553 0
0.859175 0.0187553 1
0.880723 0.0160927 0
0.880723 0.0160927 1
0.900707 0.0135598 0
0.900707 0.0135598 1
0.919044 0.0111805 0
0.935659 0.00897756 0
0.935659 0.00897756 1
0.919044 0.0111805 1
0.950484 0.00697323 0
0.963458 0.00518835 0
0.950484 0.00697323 1
0.974528 0.00364217 0
0.974528 0.00364217 1
0.963458 0.00518835 1
0.983647 0.00235188 0
0.983647 0.00235188 1
0.99078 0.00133221 0
0.995895 0.000595074 0
0.995895 0.000595074 1
0.99078 0.00133221 1
0.998973 0.000149219 0
1 -1.66533e-17 0
1 -1.66533e-17 1
0.998973 0.000149219 1
0.998973 -0.000149219 0
0.998973 -0.000149219 1
0.995895 -0.000595074 0
0.99078 -0.00133221 0
0.99078 -0.00133221 1
0.995895 -0.000595074 1
0.983647 -0.00235188 0
0.974528 -0.00364217 0
0.974528 -0.00364217 1
0.983647 -0.00235188 1
0.963458 -0.00518835 0
0.963458 -0.00518835 1
0.950484 -0.00697323 0
0.935659 -0.00897756 0
0.950484 -0.00697323 1
0.919044 -0.0111805 0
0.919044 -0.0111805 1
0.935659 -0.00897756 1
0.900707 -0.0135598 0
0.880723 -0.0160927 0
0.880723 -0.0160927 1
0.900707 -0.0135598 1
0.859175 -0.0187553 0
0.859175 -0.0187553 1
0.83615 -0.0215239 0
0.83615 -0.0215239 1
0.811745 -0.024374 0
0.811745 -0.024374 1
0.786058 -0.0272814 0
0.759196 -0.0302214 0
0.786058 -0.0272814 1
0.731269 -0.0331692 0
0.731269 -0.0331692 1
0.759196 -0.0302214 1
0.702392 -0.0360993 0
0.672683 -0.038986 0
0.702392 -0.0360993 1
0.642264 -0.0418028 0
0.672683 -0.038986 1
0.61126 -0.0445222 0
0.642264 -0.0418028 1
0.5798 -0.0471163 0
0.5798 -0.0471163 1
0.61126 -0.0445222 1
0.548012 -0.049556 0
0.548012 -0.049556 1
0.516026 -0.0518119 0
0.516026 -0.0518119 1
0.483974 -0.053854 0
0.451988 -0.0556523 0
0.451988 -0.0556523 1
0.483974 -0.053854 1
0.4202 -0.0571776 0
0.38874 -0.0584011 0
0.4202 -0.0571776 1.25
0.357736 -0.0592963 0
0.357736 -0.0592963 1.25
0.38874 -0.0584011 1.25
0.327317 -0.0598385 0
0.297608 -0.0600063 0
0.297608 -0.0600063 1.66667
0.327317 -0.0598385 1.66667
0.268731 -0.0597819 0
0.240804 -0.0591517 0
0.268731 -0.0597819 1.66667
0.213942 -0.0581069 0
0.240804 -0.0591517 1.66667
0.188255 -0.0566435 0
0.213942 -0.0581069 1.66667
0.16385 -0.0547631 0
0.188255 -0.0566435 1.66667
0.140825 -0.0524719 0
0.16385 -0.0547631 2.5
0.119277 -0.0497815 0
0.119277 -0.0497815 2.5
0.140825 -0.0524719 2.5
0.0992932 -0.0467079 0
0.0992932 -0.0467079 2.5
0.0809559 -0.0432707 0
0.0643406 -0.0394929 0
0.0809559 -0.0432707 2.5
0.0495156 -0.0353996 0
0.0495156 -0.0353996 2.5
0.0643406 -0.0394929 2.5
0.0365416 -0.031017 0
0.0254721 -0.0263713 0
0.0254721 -0.0263713 2.5
0.0365416 -0.031017 2.5
0.0163526 -0.0214881 0
0.0163526 -0.0214881 2.5
0.00922042 -0.0163907 0
0.00410499 -0.0110996 0
0.00922042 -0.0163907 2.5
0.00410499 -0.0110996 2.5
0 0 5
0.0010273 0.00563178 5
0.00488282 0.000422328 5
0.0010273 -0.00563178 5
0.00410499 0.0110996 5
0.00594311 0.00638739 5
0.00922042 0.0163907 5
0.0105481 0.00956746 5
0.0163526 0.0214881 5
0.0177992 0.0126893 5
0.0254721 0.0263713 5
0.0241266 0.0185378 5
0.0365416 0.031017 5
0.0330708 0.0201628 5
0.0495156 0.0353996 5
0.0454249 0.02341 5
0.0643406 0.0394929 5
0.0597845 0.0267333 5
0.0809559 0.0432707 5
0.0752615 0.0286189 5
0.0992932 0.0467079 5
0.0933526 0.0312234 5
0.119277 0.0497815 5
0.112032 0.0332271 5
0.140825 0.0524719 5
0.13262 0.0334595 5
0.16385 0.0547631 5
0.154036 0.0365467 5
0.188255 0.0566435 5
0.188255 0.0566435 3.33333
0.17791 0.0357093 5
0.213942 0.0581069 5
0.203298 0.034378 5
0.240804 0.0591517 5
0.240804 0.0591517 3.33333
0.229534 0.0344916 5
0.213942 0.0581069 3.33333
0.268731 0.0597819 5
0.255827 0.0351676 5
0.297608 0.0600063 5
0.297608 0.0600063 3.33333
0.283521 0.0351536 5
0.268731 0.0597819 3.33333
0.327317 0.0598385 5
0.327317 0.0598385 3.33333
0.312233 0.0346708 5
0.357736 0.0592963 5
0.357736 0.0592963 3.75
0.342337 0.0348039 5
0.38874 0.0584011 5
0.38874 0.0584011 3.75
0.372461 0.0323202 5
0.4202 0.0571776 5
0.4202 0.0571776 3.75
0.40298 0.0294742 5
0.451988 0.0556523 5
0.451988 0.0556523 4
0.434976 0.0280542 5
0.483974 0.053854 5
0.466651 0.0271313 5
0.516026 0.0518119 5
0.516026 0.0518119 4
0.498302 0.0261899 5
0.483974 0.053854 4
0.548012 0.049556 5
0.548012 0.049556 4
0.530153 0.0242033 5
0.5798 0.0471163 5
0.5798 0.0471163 4
0.561917 0.0219678 5
0.61126 0.0445222 5
0.61126 0.0445222 4
0.593379 0.0194959 5
0.642264 0.0418028 5
0.624449 0.0167885 5
0.672683 0.038986 5
0.642264 0.0418028 4
0.65435 0.0147986 5
0.702392 0.0360993 5
0.672683 0.038986 4
0.685011 0.011548 5
0.731269 0.0331692 5
0.702392 0.0360993 4
0.715265 0.0159647 5
0.759196 0.0302214 5
0.759196 0.0302214 4
0.742978 0.00863995 5
0.731269 0.0331692 4
0.786058 0.0272814 5
0.770629 0.0133683 5
0.811745 0.024374 5
0.786058 0.0272814 4
0.795054 0.00253127 5
0.83615 0.0215239 5
0.83615 0.0215239 4
0.82293 0.000549582 5
0.811745 0.024374 4
0.859175 0.0187553 5
0.859175 0.0187553 4
0.846896 9.1597e-05 5
0.880723 0.0160927 5
0.880723 0.0160927 4
0.869255 1.52662e-05 5
0.900707 0.0135598 5
0.900707 0.0135598 4
0.890064 2.54436e-06 5
0.919044 0.0111805 5
0.909264 4.2406e-07 5
0.935659 0.00897756 5
0.935659 0.00897756 4
0.926777 7.06767e-08 5
0.919044 0.0111805 4
0.950484 0.00697323 5
0.942533 1.17795e-08 5
0.963458 0.00518835 5
0.950484 0.00697323 4
0.955601 6.13258e-10 5
0.974528 0.00364217 5
0.974528 0.00364217 4
0.968376 -5.03696e-19 5
0.963458 -0.00518835 5
0.963458 0.00518835 4
0.983647 0.00235188 5
0.983647 0.00235188 4
0.979088 -3.56698e-19 5
0.974528 -0.00364217 5
0.99078 0.00133221 5
0.98695 -1.62289e-19 5
0.983647 -0.00235188 5
0.995895 0.000595074 5
0.99078 -0.00133221 5
0.995895 0.000595074 4
0.99078 0.00133221 4
0.998973 0.000149219 5
0.998973 -0.000149219 5
0.995895 -0.000595074 5
1 -1.66533e-17 5
1 -1.66533e-17 4
0.998973 0.000149219 4
0.998973 -0.000149219 4
0.99078 -0.00133221 4
0.995895 -0.000595074 4
0.974528 -0.00364217 4
0.983647 -0.00235188 4
0.963458 -0.00518835 4
0.950484 -0.00697323 5
0.935659 -0.00897756 5
0.950484 -0.00697323 4
0.919044 -0.0111805 5
0.919044 -0.0111805 4
0.935659 -0.00897756 4
0.900707 -0.0135598 5
0.880723 -0.0160927 5
0.880723 -0.0160927 4
0.900707 -0.0135598 4
0.859175 -0.0187553 5
0.859175 -0.0187553 4
0.83615 -0.0215239 5
0.83615 -0.0215239 4
0.811745 -0.024374 5
0.811745 -0.024374 4
0.786058 -0.0272814 5
0.759196 -0.0302214 5
0.786058 -0.0272814 4
0.766475 -0.00762626 5
0.731269 -0.0331692 5
0.731269 -0.0331692 4
0.742918 -0.014402 5
0.759196 -0.0302214 4
0.702392 -0.0360993 5
0.714673 -0.00963311 5
0.672683 -0.038986 5
0.702392 -0.0360993 4
0.68616 -0.0174797 5
0.642264 -0.0418028 5
0.672683 -0.038986 4
0.656043 -0.0142282 5
0.61126 -0.0445222 5
0.642264 -0.0418028 4
0.624538 -0.017498 5
0.5798 -0.0471163 5
0.5798 -0.0471163 4
0.593592 -0.0201057 5
0.61126 -0.0445222 4
0.548012 -0.049556 5
0.548012 -0.049556 4
0.561915 -0.0217678 5
0.516026 -0.0518119 5
0.516026 -0.0518119 4
0.530215 -0.0247208 5
0.483974 -0.053854 5
0.498292 -0.0262554 5
0.451988 -0.0556523 5
0.451988 -0.0556523 4
0.466531 -0.027285 5
0.483974 -0.053854 4
0.4202 -0.0571776 5
0.435115 -0.028536 5
0.38874 -0.0584011 5
0.38874 -0.0584011 3.75
0.403477 -0.0308765 5
0.4202 -0.0571776 3.75
0.357736 -0.0592963 5
0.372708 -0.0324591 5
0.327317 -0.0598385 5
0.357736 -0.0592963 3.75
0.343232 -0.0350942 5
0.297608 -0.0600063 5
0.327317 -0.0598385 3.33333
0.314333 -0.0380691 5
0.268731 -0.0597819 5
0.297608 -0.0600063 3.33333
0.286361 -0.033552 5
0.240804 -0.0591517 5
0.240804 -0.0591517 3.33333
0.255808 -0.0354472 5
0.268731 -0.0597819 3.33333
0.213942 -0.0581069 5
0.22951 -0.0364092 5
0.188255 -0.0566435 5
0.188255 -0.0566435 3.33333
0.202895 -0.0351778 5
0.213942 -0.0581069 3.33333
0.16385 -0.0547631 5
0.177229 -0.0372903 5
0.140825 -0.0524719 5
0.153939 -0.0375188 5
0.119277 -0.0497815 5
0.131576 -0.0345303 5
0.0992932 -0.0467079 5
0.111855 -0.031694 5
0.0809559 -0.0432707 5
0.0931572 -0.0286331 5
0.0643406 -0.0394929 5
0.0753071 -0.0270043 5
0.0495156 -0.0353996 5
0.0602788 -0.0253109 5
0.0365416 -0.031017 5
0.0464059 -0.0237447 5
0.0254721 -0.0263713 5
0.0347519 -0.0197705 5
0.0163526 -0.0214881 5
0.0251258 -0.016061 5
0.00922042 -0.0163907 5
0.0174391 -0.0134184 5
0.00410499 -0.0110996 5
0.0111622 -0.00820046 5
0.00633539 -0.00565177 5
0.357736 0.0592963 2.5
0.38874 0.0584011 2.5
0.4202 0.0571776 2.5
0.451988 0.0556523 2
0.451988 0.0556523 3
0.483974 0.053854 2
0.483974 0.053854 3
0.516026 0.0518119 2
0.516026 0.0518119 3
0.548012 0.049556 2
0.548012 0.049556 3
0.5798 0.0471163 2
0.5798 0.0471163 3
0.61126 0.0445222 2
0.61126 0.0445222 3
0.642264 0.0418028 2
0.642264 0.0418028 3
0.672683 0.038986 2
0.672683 0.038986 3
0.702392 0.0360993 3
0.702392 0.0360993 2
0.731269 0.0331692 2
0.731269 0.0331692 3
0.759196 0.0302214 3
0.759196 0.0302214 2
0.786058 0.0272814 2
0.786058 0.0272814 3
0.811745 0.024374 2
0.811745 0.024374 3
0.83615 0.0215239 2
0.83615 0.0215239 3
0.859175 0.0187553 2
0.859175 0.0187553 3
0.880723 0.0160927 2
0.880723 0.0160927 3
0.900707 0.0135598 2
0.900707 0.0135598 3
0.919044 0.0111805 3
0.919044 0.0111805 2
0.935659 0.00897756 2
0.935659 0.00897756 3
0.950484 0.00697323 3
0.950484 0.00697323 2
0.963458 0.00518835 2
0.963458 0.00518835 3
0.974528 0.00364217 2
0.974528 0.00364217 3
0.983647 0.00235188 2
0.983647 0.00235188 3
0.99078 0.00133221 2
0.99078 0.00133221 3
0.995895 0.000595074 2
0.995895 0.000595074 3
0.998973 0.000149219 3
0.998973 0.000149219 2
1 -1.66533e-17 2
1 -1.66533e-17 3
0.998973 -0.000149219 3
0.998973 -0.000149219 2
0.995895 -0.000595074 2
0.995895 -0.000595074 3
0.99078 -0.00133221 2
0.99078 -0.00133221 3
0.983647 -0.00235188 2
0.983647 -0.00235188 3
0.974528 -0.00364217 3
0.974528 -0.00364217 2
0.963458 -0.00518835 2
0.963458 -0.00518835 3
0.950484 -0.00697323 2
0.950484 -0.00697323 3
0.935659 -0.00897756 3
0.935659 -0.00897756 2
0.919044 -0.0111805 2
0.919044 -0.0111805 3
0.900707 -0.0135598 2
0.900707 -0.0135598 3
0.880723 -0.0160927 3
0.880723 -0.0160927 2
0.859175 -0.0187553 2
0.859175 -0.0187553 3
0.83615 -0.0215239 2
0.83615 -0.0215239 3
0.811745 -0.024374 2
0.811745 -0.024374 3
0.786058 -0.0272814 2
0.786058 -0.0272814 3
0.759196 -0.0302214 2
0.759196 -0.0302214 3
0.731269 -0.0331692 2
0.731269 -0.0331692 3
0.702392 -0.0360993 3
0.702392 -0.0360993 2
0.672683 -0.038986 3
0.672683 -0.038986 2
0.642264 -0.0418028 2
0.642264 -0.0418028 3
0.61126 -0.0445222 2
0.61126 -0.0445222 3
0.5798 -0.0471163 3
0.5798 -0.0471163 2
0.548012 -0.049556 2
0.548012 -0.049556 3
0.516026 -0.0518119 2
0.516026 -0.0518119 3
0.483974 -0.053854 2
0.483974 -0.053854 3
0.451988 -0.0556523 2
0.451988 -0.0556523 3
0.4202 -0.0571776 2.5
0.38874 -0.0584011 2.5
0.357736 -0.0592963 2.5
0.0152049 -0.00116189 5
0.016672 -0.00714968 5
0.00927384 -0.00159629 5
0.0407318 0.0112166 5
0.0279385 0.0119774 5
0.0672144 -0.0121733 5
0.0543483 -0.0161568 5
0.104778 0.0164908 5
0.0861253 0.0148946 5
0.146408 0.0159561 5
0.124664 0.0168467 5
0.188757 -0.0220831 5
0.16636 -0.0209904 5
0.0217263 0.00440252 5
0.0153532 0.00602757 5
0.243498 -0.0109257 5
0.221791 -0.0170633 5
0.033344 -0.00899879 5
0.0441089 -0.01286 5
0.104878 -0.0141558 5
0.124109 -0.0167033 5
0.0692285 0.0145335 5
0.0542289 0.0161216 5
0.309887 -0.0148864 5
0.288824 -0.0093067 5
0.268947 -0.0158328 5
0.354598 -0.00773736 5
0.332316 -0.0138807 5
0.193405 0.0119066 5
0.219517 0.00739475 5
0.383221 0.000920692 5
0.418282 -2.83749e-05 5
0.243461 0.0153167 5
0.268928 0.0104552 5
0.450209 -0.000196067 5
0.482071 -6.7436e-05 5
0.298537 0.010665 5
0.329754 0.00869595 5
0.545453 -4.90584e-05 5
0.513944 -8.86315e-05 5
0.0103874 0.003551 5
0.356397 0.0145315 5
0.608733 -0.000306972 5
0.577335 -5.57767e-05 5
0.639102 -0.000466803 5
0.0858956 -0.0131449 5
0.116471 0.00105916 5
0.0962757 0.000656495 5
0.136423 -0.00113451 5
0.144498 -0.0191712 5
0.0780668 0.00124039 5
0.157613 -0.00315103 5
0.170491 0.0140382 5
0.180064 -0.00546258 5
0.203065 -0.0108664 5
0.0228817 -0.00581803 5
0.0424662 -0.00129353 5
0.0313118 0.00190095 5
0.054243 -0.00542071 5
0.0511 0.00458122 5
0.0636612 0.00267607 5

CELLS 1134 4536
3 0 1 2
3 0 3 4
3 0 2 5
3 0 5 4
3 1 6 2
3 6 7 8
3 6 2 8
3 7 9 10
3 7 8 11
3 7 11 10
3 9 12 13
3 9 10 13
3 12 14 13
3 14 15 16
3 14 13 17
3 14 17 16
3 15 18 16
3 18 19 20
3 18 16 21
3 18 21 20
3 19 22 23
3 19 20 23
3 22 24 23
3 24 25 26
3 24 23 26
3 25 27 28
3 25 26 29
3 25 29 28
3 27 30 31
3 27 28 31
3 30 32 33
3 30 31 33
3 32 34 35
3 32 33 35
3 34 36 37
3 34 35 37
3 36 38 37
3 38 39 40
3 38 37 40
3 39 41 42
3 39 40 43
3 39 43 42
3 41 44 42
3 44 45 46
3 44 42 47
3 44 47 46
3 45 48 49
3 45 46 49
3 48 50 49
3 50 51 52
3 50 49 53
3 50 53 52
3 51 54 55
3 51 52 55
3 54 56 57
3 54 55 57
3 56 58 59
3 56 57 59
3 58 60 59
3 60 61 62
3 60 59 62
3 61 63 64
3 61 62 64
3 63 65 66
3 63 64 66
3 65 67 68
3 65 66 69
3 65 69 68
3 67 70 68
3 70 71 72
3 70 68 72
3 71 73 74
3 71 72 75
3 71 75 74
3 73 76 77
3 73 74 77
3 76 78 79
3 76 77 79
3 78 80 81
3 78 79 81
3 80 82 81
3 82 83 84
3 82 81 85
3 82 85 84
3 83 86 84
3 86 87 88
3 86 84 88
3 87 89 90
3 87 88 91
3 87 91 90
3 89 92 93
3 89 90 93
3 92 94 93
3 94 95 96
3 94 93 97
3 94 97 96
3 95 98 96
3 98 99 100
3 98 96 101
3 98 101 100
3 99 102 103
3 99 100 103
3 102 104 103
3 104 105 106
3 104 103 107
3 104 107 106
3 105 108 106
3 108 109 110
3 108 106 111
3 108 111 110
3 109 112 113
3 109 110 113
3 112 114 113
3 114 115 116
3 114 113 116
3 115 117 118
3 115 116 119
3 115 119 118
3 117 120 118
3 120 121 122
3 120 118 123
3 120 123 122
3 121 124 125
3 121 122 125
3 124 126 127
3 124 125 127
3 126 128 129
3 126 127 129
3 128 130 129
3 130 131 132
3 130 129 132
3 131 133 134
3 131 132 135
3 131 135 134
3 133 136 134
3 136 137 138
3 136 134 138
3 137 139 140
3 137 138 140
3 139 141 142
3 139 140 142
3 141 143 144
3 141 142 145
3 141 145 144
3 143 146 147
3 143 144 147
3 146 148 149
3 146 147 149
3 148 150 149
3 150 151 152
3 150 149 153
3 150 153 152
3 151 154 152
3 154 155 156
3 154 152 156
3 155 157 158
3 155 156 159
3 155 159 158
3 157 160 158
3 160 161 162
3 160 158 163
3 160 163 162
3 161 164 162
3 164 165 166
3 164 162 166
3 165 167 168
3 165 166 168
3 167 169 170
3 167 168 170
3 169 171 172
3 169 170 172
3 171 173 174
3 171 172 174
3 173 175 176
3 173 174 177
3 173 177 176
3 175 178 179
3 175 176 179
3 178 180 179
3 180 181 182
3 180 179 182
3 181 183 184
3 181 182 185
3 181 185 184
3 183 186 184
3 186 187 188
3 186 184 189
3 186 189 188
3 187 190 191
3 187 188 191
3 190 192 191
3 192 193 194
3 192 191 194
3 193 3 4
3 193 194 195
3 193 195 4
3 196 197 5
3 196 197 198
3 196 199 5
3 196 199 198
3 197 200 8
3 197 200 201
3 197 2 5
3 197 2 8
3 197 198 201
3 200 202 8
3 200 202 203
3 200 203 201
3 202 204 11
3 202 204 205
3 202 8 11
3 202 205 203
3 204 206 13
3 204 206 207
3 204 11 10
3 204 10 13
3 204 205 207
3 206 208 17
3 206 208 209
3 206 13 17
3 206 209 207
3 208 210 17
3 208 210 211
3 208 209 211
3 210 212 21
3 210 212 213
3 210 17 16
3 210 16 21
3 210 213 211
3 212 214 21
3 212 214 215
3 212 213 215
3 214 216 20
3 214 216 217
3 214 21 20
3 214 217 215
3 216 218 26
3 216 218 219
3 216 20 23
3 216 23 26
3 216 217 219
3 218 220 29
3 218 220 221
3 218 26 29
3 218 221 219
3 220 222 29
3 220 222 223
3 220 221 223
3 222 224 225
3 222 224 226
3 222 29 28
3 222 28 225
3 222 226 223
3 224 227 225
3 224 227 228
3 224 228 226
3 227 229 230
3 227 229 231
3 227 225 232
3 227 232 230
3 227 228 231
3 229 233 230
3 229 233 234
3 229 234 231
3 233 235 236
3 233 235 237
3 233 230 238
3 233 238 236
3 233 234 237
3 235 239 240
3 235 239 241
3 235 236 240
3 235 241 237
3 239 242 243
3 239 242 244
3 239 240 243
3 239 241 244
3 242 245 246
3 242 245 247
3 242 243 246
3 242 247 244
3 245 248 249
3 245 248 250
3 245 246 249
3 245 247 250
3 248 251 252
3 248 251 253
3 248 249 252
3 248 253 250
3 251 254 252
3 251 254 255
3 251 253 255
3 254 256 257
3 254 256 258
3 254 252 259
3 254 259 257
3 254 255 258
3 256 260 261
3 256 260 262
3 256 257 261
3 256 262 258
3 260 263 264
3 260 263 265
3 260 261 264
3 260 262 265
3 263 266 267
3 263 266 268
3 263 264 267
3 263 268 265
3 266 269 267
3 266 269 270
3 266 268 270
3 269 271 272
3 269 271 273
3 269 267 272
3 269 273 270
3 271 274 275
3 271 274 276
3 271 272 275
3 271 273 276
3 274 277 278
3 274 277 279
3 274 275 278
3 274 276 279
3 277 280 281
3 277 280 282
3 277 278 283
3 277 283 281
3 277 282 279
3 280 284 281
3 280 284 285
3 280 282 285
3 284 286 287
3 284 286 288
3 284 281 287
3 284 288 285
3 286 289 290
3 286 289 291
3 286 287 292
3 286 292 290
3 286 291 288
3 289 293 294
3 289 293 295
3 289 290 294
3 289 291 295
3 293 296 297
3 293 296 298
3 293 294 297
3 293 295 298
3 296 299 300
3 296 299 301
3 296 297 300
3 296 298 301
3 299 302 300
3 299 302 303
3 299 301 303
3 302 304 305
3 302 304 306
3 302 300 307
3 302 307 305
3 302 303 306
3 304 308 305
3 304 308 309
3 304 306 309
3 308 310 311
3 308 310 312
3 308 305 311
3 308 309 312
3 310 313 314
3 310 313 315
3 310 316 315
3 310 316 312
3 310 311 317
3 310 317 314
3 313 318 319
3 313 318 320
3 313 321 320
3 313 321 315
3 313 314 319
3 318 322 319
3 318 322 323
3 318 324 323
3 318 324 320
3 322 325 326
3 322 325 327
3 322 326 323
3 322 319 328
3 322 328 327
3 325 329 330
3 325 329 327
3 325 330 331
3 325 331 326
3 329 332 330
3 329 332 333
3 329 327 334
3 329 334 333
3 332 330 335
3 332 333 335
3 330 331 335
3 331 326 336
3 331 335 337
3 331 337 336
3 326 324 336
3 326 324 323
3 324 321 338
3 324 321 320
3 324 336 339
3 324 339 338
3 321 316 340
3 321 316 315
3 321 338 340
3 316 341 340
3 316 341 312
3 341 342 343
3 341 342 309
3 341 340 343
3 341 309 312
3 342 344 345
3 342 344 306
3 342 343 346
3 342 346 345
3 342 306 309
3 344 347 345
3 344 347 303
3 344 303 306
3 347 348 349
3 347 348 301
3 347 345 350
3 347 350 349
3 347 301 303
3 348 351 352
3 348 351 298
3 348 349 352
3 348 298 301
3 351 353 354
3 351 353 295
3 351 352 354
3 351 295 298
3 353 355 356
3 353 355 291
3 353 354 356
3 353 291 295
3 355 357 356
3 355 357 288
3 355 291 288
3 357 358 359
3 357 358 360
3 357 356 359
3 357 360 288
3 358 361 362
3 358 361 363
3 358 359 364
3 358 364 362
3 358 360 363
3 361 365 362
3 361 365 366
3 361 366 363
3 365 367 368
3 365 367 369
3 365 362 368
3 365 366 369
3 367 370 371
3 367 370 372
3 367 368 371
3 367 372 369
3 370 373 374
3 370 373 375
3 370 371 374
3 370 375 372
3 373 376 377
3 373 376 378
3 373 374 379
3 373 379 377
3 373 375 378
3 376 380 381
3 376 380 382
3 376 377 381
3 376 382 378
3 380 383 384
3 380 383 385
3 380 381 384
3 380 382 385
3 383 386 384
3 383 386 387
3 383 385 387
3 386 388 389
3 386 388 390
3 386 384 391
3 386 391 389
3 386 390 387
3 388 392 389
3 388 392 393
3 388 390 393
3 392 394 395
3 392 394 396
3 392 389 397
3 392 397 395
3 392 396 393
3 394 398 395
3 394 398 399
3 394 396 399
3 398 400 401
3 398 400 402
3 398 395 401
3 398 402 399
3 400 403 404
3 400 403 405
3 400 401 404
3 400 402 405
3 403 406 407
3 403 406 408
3 403 404 407
3 403 408 405
3 406 409 410
3 406 409 411
3 406 407 412
3 406 412 410
3 406 408 411
3 409 413 410
3 409 413 414
3 409 414 411
3 413 415 416
3 413 415 417
3 413 410 418
3 413 418 416
3 413 414 417
3 415 419 416
3 415 419 420
3 415 420 417
3 419 421 177
3 419 421 422
3 419 416 174
3 419 174 177
3 419 420 422
3 421 423 177
3 421 423 424
3 421 424 422
3 423 425 176
3 423 425 426
3 423 177 176
3 423 426 424
3 425 427 182
3 425 427 428
3 425 176 179
3 425 179 182
3 425 426 428
3 427 429 185
3 427 429 430
3 427 182 185
3 427 428 430
3 429 431 185
3 429 431 432
3 429 432 430
3 431 433 189
3 431 433 434
3 431 185 184
3 431 184 189
3 431 432 434
3 433 435 189
3 433 435 436
3 433 436 434
3 435 437 191
3 435 437 438
3 435 189 188
3 435 188 191
3 435 436 438
3 437 439 194
3 437 439 440
3 437 191 194
3 437 438 440
3 439 441 194
3 439 441 442
3 439 442 440
3 441 199 195
3 441 199 443
3 441 194 195
3 441 442 443
3 199 5 4
3 199 195 4
3 199 198 443
3 28 31 225
3 31 225 232
3 31 33 232
3 33 232 35
3 232 35 230
3 35 230 238
3 35 37 238
3 37 238 40
3 238 40 236
3 40 236 43
3 236 43 240
3 43 240 444
3 43 42 444
3 240 444 243
3 42 444 47
3 444 243 445
3 444 47 445
3 243 445 246
3 47 445 446
3 47 46 446
3 445 246 249
3 445 446 249
3 46 446 447
3 46 49 447
3 446 249 448
3 446 447 448
3 249 448 252
3 49 447 53
3 447 448 449
3 447 53 449
3 448 252 259
3 448 449 450
3 448 450 259
3 53 449 451
3 53 52 451
3 449 450 452
3 449 451 452
3 450 259 452
3 259 452 257
3 52 451 453
3 52 55 453
3 451 452 453
3 452 257 261
3 452 453 454
3 452 454 261
3 55 453 455
3 55 57 455
3 453 454 456
3 453 455 456
3 454 261 264
3 454 456 264
3 57 455 59
3 455 456 457
3 455 59 457
3 456 264 267
3 456 457 458
3 456 458 267
3 59 457 459
3 59 62 459
3 457 458 460
3 457 459 460
3 458 267 272
3 458 460 272
3 62 459 64
3 459 460 461
3 459 64 461
3 460 272 275
3 460 461 462
3 460 462 275
3 64 461 66
3 461 462 463
3 461 66 464
3 461 464 463
3 462 275 278
3 462 463 278
3 66 464 465
3 66 69 465
3 464 463 466
3 464 465 466
3 463 278 466
3 278 466 283
3 69 465 68
3 465 466 467
3 465 68 468
3 465 468 467
3 466 283 281
3 466 467 281
3 68 468 469
3 68 72 469
3 468 467 469
3 467 281 287
3 467 469 470
3 467 470 287
3 72 469 471
3 72 75 471
3 469 470 472
3 469 471 472
3 470 287 292
3 470 472 292
3 75 471 74
3 471 472 473
3 471 74 473
3 472 292 474
3 472 473 474
3 292 474 290
3 74 473 475
3 74 77 475
3 473 474 476
3 473 475 476
3 474 290 294
3 474 476 294
3 77 475 477
3 77 79 477
3 475 476 477
3 476 294 297
3 476 477 478
3 476 478 297
3 79 477 479
3 79 81 479
3 477 478 480
3 477 479 480
3 478 297 300
3 478 480 300
3 81 479 85
3 479 480 481
3 479 85 482
3 479 482 481
3 480 300 307
3 480 481 307
3 85 482 483
3 85 84 483
3 482 481 484
3 482 483 484
3 481 307 484
3 307 484 305
3 84 483 88
3 483 484 485
3 483 88 486
3 483 486 485
3 484 305 485
3 305 485 311
3 88 486 487
3 88 91 487
3 486 485 488
3 486 487 488
3 485 311 317
3 485 488 317
3 91 487 489
3 91 90 489
3 487 488 489
3 488 317 314
3 488 489 490
3 488 490 314
3 90 489 491
3 90 93 491
3 489 490 492
3 489 491 492
3 490 314 319
3 490 492 319
3 93 491 97
3 491 492 493
3 491 97 493
3 492 319 328
3 492 493 494
3 492 494 328
3 97 493 495
3 97 96 495
3 493 494 496
3 493 495 496
3 494 328 327
3 494 496 327
3 96 495 101
3 495 496 497
3 495 101 498
3 495 498 497
3 496 327 334
3 496 497 334
3 101 498 499
3 101 100 499
3 498 497 500
3 498 499 500
3 497 334 500
3 334 500 333
3 100 499 103
3 499 500 501
3 499 103 502
3 499 502 501
3 500 333 335
3 500 501 335
3 103 502 503
3 103 107 503
3 502 501 504
3 502 503 504
3 501 335 504
3 335 504 337
3 107 503 505
3 107 106 505
3 503 504 506
3 503 505 506
3 504 337 336
3 504 506 336
3 106 505 507
3 106 111 507
3 505 506 507
3 506 336 508
3 506 507 508
3 336 508 339
3 111 507 110
3 507 508 509
3 507 110 510
3 507 510 509
3 508 339 338
3 508 509 338
3 110 510 511
3 110 113 511
3 510 509 512
3 510 511 512
3 509 338 512
3 338 512 340
3 113 511 116
3 511 512 513
3 511 116 513
3 512 340 343
3 512 513 514
3 512 514 343
3 116 513 119
3 513 514 515
3 513 119 516
3 513 516 515
3 514 343 346
3 514 515 346
3 119 516 517
3 119 118 517
3 516 515 518
3 516 517 518
3 515 346 518
3 346 518 345
3 118 517 123
3 517 518 519
3 517 123 519
3 518 345 350
3 518 519 520
3 518 520 350
3 123 519 122
3 519 520 521
3 519 122 522
3 519 522 521
3 520 350 349
3 520 521 349
3 122 522 523
3 122 125 523
3 522 521 524
3 522 523 524
3 521 349 352
3 521 524 352
3 125 523 525
3 125 127 525
3 523 524 525
3 524 352 354
3 524 525 526
3 524 526 354
3 127 525 527
3 127 129 527
3 525 526 528
3 525 527 528
3 526 354 356
3 526 528 356
3 129 527 529
3 129 132 529
3 527 528 529
3 528 356 530
3 528 529 530
3 356 530 359
3 132 529 531
3 132 135 531
3 529 530 532
3 529 531 532
3 530 359 364
3 530 532 364
3 135 531 533
3 135 134 533
3 531 532 534
3 531 533 534
3 532 364 362
3 532 534 362
3 134 533 138
3 533 534 535
3 533 138 536
3 533 536 535
3 534 362 368
3 534 535 368
3 138 536 140
3 536 535 537
3 536 140 538
3 536 538 537
3 535 368 537
3 368 537 371
3 140 538 539
3 140 142 539
3 538 537 540
3 538 539 540
3 537 371 540
3 371 540 374
3 142 539 145
3 539 540 541
3 539 145 541
3 540 374 379
3 540 541 542
3 540 542 379
3 145 541 144
3 541 542 543
3 541 144 544
3 541 544 543
3 542 379 377
3 542 543 377
3 144 544 545
3 144 147 545
3 544 543 545
3 543 377 381
3 543 545 546
3 543 546 381
3 147 545 547
3 147 149 547
3 545 546 548
3 545 547 548
3 546 381 384
3 546 548 384
3 149 547 153
3 547 548 549
3 547 153 549
3 548 384 391
3 548 549 550
3 548 550 391
3 153 549 551
3 153 152 551
3 549 550 552
3 549 551 552
3 550 391 552
3 391 552 389
3 152 551 156
3 551 552 553
3 551 156 553
3 552 389 397
3 552 553 397
3 156 553 159
3 553 397 554
3 553 159 554
3 397 554 395
3 159 554 555
3 159 158 555
3 554 395 401
3 554 555 401
3 158 555 163
3 555 401 404
3 555 163 404
3 163 404 407
3 163 162 407
3 162 407 412
3 162 166 412
3 166 412 168
3 412 168 410
3 168 410 418
3 168 170 418
3 170 418 172
3 418 172 416
3 172 416 174
3 442 556 557
3 442 556 558
3 442 440 557
3 442 443 558
3 209 211 559
3 209 559 560
3 209 560 207
3 432 561 430
3 432 561 562
3 432 434 562
3 217 563 564
3 217 563 219
3 217 215 564
3 221 565 223
3 221 565 566
3 221 566 219
3 420 417 567
3 420 422 568
3 420 568 567
3 205 569 560
3 205 569 570
3 205 560 207
3 205 203 570
3 414 411 571
3 414 571 572
3 414 417 572
3 436 438 573
3 436 573 574
3 436 574 434
3 426 428 575
3 426 575 576
3 426 576 424
3 213 215 577
3 213 211 578
3 213 577 578
3 408 579 405
3 408 579 580
3 408 411 581
3 408 581 580
3 402 399 582
3 402 582 583
3 402 405 583
3 228 584 585
3 228 584 226
3 228 585 231
3 396 399 586
3 396 586 587
3 396 587 393
3 234 231 588
3 234 237 589
3 234 589 588
3 390 590 393
3 390 590 591
3 390 387 591
3 241 237 592
3 241 592 593
3 241 593 244
3 262 265 594
3 262 258 595
3 262 595 594
3 198 443 558
3 198 201 596
3 198 596 558
3 247 244 597
3 247 586 250
3 247 586 597
3 268 270 598
3 268 265 599
3 268 599 598
3 253 587 250
3 253 587 590
3 253 590 255
3 273 276 372
3 273 270 600
3 273 372 600
3 382 378 599
3 382 385 594
3 382 594 599
3 366 282 279
3 366 282 363
3 366 276 369
3 366 276 279
3 375 378 598
3 375 372 600
3 375 598 600
3 360 282 363
3 360 282 285
3 360 288 285
3 428 575 601
3 428 601 430
3 575 576 602
3 575 601 603
3 575 602 603
3 576 602 604
3 576 604 605
3 576 605 424
3 601 561 430
3 601 561 606
3 601 603 606
3 602 604 566
3 602 603 563
3 602 563 566
3 604 605 607
3 604 607 565
3 604 565 566
3 605 607 568
3 605 424 422
3 605 422 568
3 607 565 608
3 607 608 609
3 607 609 568
3 565 608 223
3 608 609 584
3 608 584 226
3 608 226 223
3 609 584 610
3 609 610 567
3 609 568 567
3 584 610 585
3 610 585 572
3 610 417 572
3 610 417 567
3 585 231 588
3 585 571 588
3 585 571 572
3 276 372 369
3 438 573 611
3 438 611 440
3 573 574 612
3 573 612 613
3 573 613 611
3 574 612 614
3 574 614 562
3 574 434 562
3 612 614 615
3 612 613 559
3 612 615 559
3 614 615 616
3 614 616 561
3 614 561 562
3 613 611 569
3 613 569 560
3 613 559 560
3 615 616 578
3 615 559 578
3 616 561 606
3 616 577 606
3 616 577 578
3 611 569 556
3 611 556 557
3 611 440 557
3 270 598 600
3 378 599 598
3 237 589 592
3 589 592 580
3 589 571 588
3 589 571 581
3 589 581 580
3 592 593 579
3 592 579 580
3 593 579 583
3 593 244 597
3 593 582 583
3 593 582 597
3 579 405 583
3 411 571 581
3 265 594 599
3 399 586 582
3 586 587 250
3 586 582 597
3 587 590 393
3 590 255 591
3 603 563 564
3 603 564 606
3 563 566 219
3 385 387 595
3 385 595 594
3 387 591 595
3 255 258 591
3 258 591 595
3 569 556 570
3 556 596 558
3 556 596 570
3 215 564 577
3 564 577 606
3 211 559 578
3 203 201 596
3 203 596 570

CELL_TYPES 1134
5
5
5
5
5
5
5
5
5
5
5
5
5
5
5
5
5
5
5
5
5
5
5
5
5
5
5
5
5
5
5
5
5
5
5
5
5
5
5
5
5
5
5
5
5
5
5
5
5
5
5
5
5
5
5
5
5
5
5
5
5
5
5
5
5
5
5
5
5
5
5
5
5
5
5
5
5
5
5
5
5
5
5
5
5
5
5
5
5
5
5
5
5
5
5
5
5
5
5
5
5
5
5
5
5
5
5
5
5
5
5
5
5
5
5
5
5
5
5
5
5
5
5
5
5
5
5
5
5
5
5
5
5
5
5
5
5
5
5
5
5
5
5
5
5
5
5
5
5
5
5
5
5
5
5
5
5
5
5
5
5
5
5
5
5
5
5
5
5
5
5
5
5
5
5
5
5
5
5
5
5
5
5
5
5
5
5
5
5
5
5
5
5
5
5
5
5
5
5
5
5
5
5
5
5
5
5
5
5
5
5
5
5
5
5
5
5
5
5
5
5
5
5
5
5
5
5
5
5
5
5
5
5
5
5
5
5
5
5
5
5
5
5
5
5
5
5
5
5
5
5
5
5
5
5
5
5
5
5
5
5
5
5
5
5
5
5
5
5
5
5
5
5
5
5
5
5
5
5
5
5
5
5
5
5
5
5
5
5
5
5
5
5
5
5
5
5
5
5
5
5
5
5
5
5
5
5
5
5
5
5
5
5
5
5
5
5
5
5
5
5
5
5
5
5
5
5
5
5
5
5
5
5
5
5
5
5
5
5
5
5
5
5
5
5
5
5
5
5
5
5
5
5
5
5
5
5
5
5
5
5
5
5
5
5
5
5
5
5
5
5
5
5
5
5
5
5
5
5
5
5
5
5
5
5
5
5
5
5
5
5
5
5
5
5
5
5
5
5
5
5
5
5
5
5
5
5
5
5
5
5
5
5
5
5
5
5
5
5
5
5
5
5
5
5
5
5
5
5
5
5
5
5
5
5
5
5
5
5
5
5
5
5
5
5
5
5
5
5
5
5
5
5
5
5
5
5
5
5
5
5
5
5
5
5
5
5
5
5
5
5
5
5
5
5
5
5
5
5
5
5
5
5
5
5
5
5
5
5
5
5
5
5
5
5
5
5
5
5
5
5
5
5
5
5
5
5
5
5
5
5
5
5
5
5
5
5
5
5
5
5
5
5
5
5
5
5
5
5
5
5
5
5
5
5
5
5
5
5
5
5
5
5
5
5
5
5
5
5
5
5
5
5
5
5
5
5
5
5
5
5
5
5
5
5
5
5
5
5
5
5
5
5
5
5
5
5
5
5
5
5
5
5
5
5
5
5
5
5
5
5
5
5
5
5
5
5
5
5
5
5
5
5
5
5
5
5
5
5
5
5
5
5
5
5
5
5
5
5
5
5
5
5
5
5
5
5
5
5
5
5
5
5
5
5
5
5
5
5
5
5
5
5
5
5
5
5
5
5
5
5
5
5
5
5
5
5
5
5
5
5
5
5
5
5
5
5
5
5
5
5
5
5
5
5
5
5
5
5
5
5
5
5
5
5
5
5
5
5
5
5
5
5
5
5
5
5
5
5
5
5
5
5
5
5
5
5
5
5
5
5
5
5
5
5
5
5
5
5
5
5
5
5
5
5
5
5
5
5
5
5
5
5
5
5
5
5
5
5
5
5
5
5
5
5
5
5
5
5
5
5
5
5
5
5
5
5
5
5
5
5
5
5
5
5
5
5
5
5
5
5
5
5
5
5
5
5
5
5
5
5
5
5
5
5
5
5
5
5
5
5
5
5
5
5
5
5
5
5
5
5
5
5
5
5
5
5
5
5
5
5
5
5
5
5
5
5
5
5
5
5
5
5
5
5
5
5
5
5
5
5
5
5
5
5
5
5
5
5
5
5
5
5
5
5
5
5
5
5
5
5
5
5
5
5
5
5
5
5
5
5
5
5
5
5
5
5
5
5
5
5
5
5
5
5
5
5
5
5
5
5
5
5
5
5
5
5
5
5
5
5
5
5
5
5
5
5
5
5
5
5
5
5
5
5
5
5
5
5
5
5
5
5
5
5
5
5
5
5
5
5
5
5
5
5
5
5
5
5
5
5
5
5
5
5
5
5
5
5
5
5
5
5
5
5
5
5
5
5
5
5
5
5
5
5
5
5
5
5
5
5
5
5
5
5
5
5
5
5
5
5
5
5
5
5
5
5
5
5
5
5
5
5
5
5
5
5
5
5
5
5
5
5
5
5
5
5
5
5
5
5
5
5
5
5
5
5
5
5
5
5
5
5
5
5
5
5
5
5
5
5
5
5
5
5
5
5
5
5
5
5
5
5
5
5
5
5
5
5
5
5
5
5
5
5
5
5
5
5
5
5
5
5
5
5
5
5
5
5
5
5
5
5
5
5
5
5
5
5
5
5
5
5
5
5
5
5
5
5
5
5
5
5
5
5
5
5
5
5
5
5
5
5
5
5
5
5
5
5
5
5
5
5
5
5
5
5
5
5
5
5
5
5
5
5
5
5
5
5
5
5
5
5
5
5
5
5
5
5
5
5
5
5
5

CELL_DATA 1134
SCALARS Pressure double 1
LOOKUP_TABLE default
34515.6
33359.8
34675.1
32918.1
33965.5
33109.1
33822.8
32666.5
34930.8
31916.3
32338.8
32608.8
32181.4
31939.4
32603.9
32082.3
31460.9
36482.1
31486.7
32667.7
31731.1
31621.1
31966.1
30987.1
32806.4
30081.5
31400.8
29288.8
26412
27119.5
26245
26909.6
26762.5
26645
26122.5
27154.3
25806.2
24232.5
24836.9
24602
24913.5
24472.7
24571
24506.1
25585.3
25771.6
24720.3
26034.3
25271.6
24179.1
25462
25881.9
24589.3
25355.7
25422.8
26019.8
24728.8
25329.8
24773.3
24986
25339.3
25664
25639.1
23887.3
26156.2
21637.9
23171.3
22442.1
21773.2
22008.9
21884.4
22291.7
21733.9
21964.7
20660
22801.4
25107.3
25021.8
21136.9
24319.2
20296.9
21398.9
24903.6
25873.9
20445
25759.3
24485.9
26001.7
25668.8
26298.8
21359.8
25340.1
20248.7
21350.6
20123.1
20372.2
24098.8
24494.8
24071.3
24484.8
26354.8
26456.3
26206
26053.2
26241.8
26117.1
25937.3
25496.1
25839.1
25723.3
25230.9
25279
24981.6
24816.4
24899
24275.9
24567.4
24535.4
24205
23790.6
24040.9
23905.9
23562.3
23628.6
23160.5
23220.5
22778.4
23025.6
22673.9
22423.1
22312.8
23239.8
22445.9
22801.2
23570.3
24164.5
23826.7
23978.9
24262.4
23998
24292.8
24323.9
24489.9
24408
24751.4
24795.8
25096.8
25129.7
25667.7
26461.1
25597.1
26808.1
26324.4
26831.9
26648.9
27141.7
26843.2
27645.8
27307
27487.5
26911.9
27895.1
26314.8
26661.4
27402.3
26840
27359.1
27299.1
27527.9
27511.1
27769.9
32008.5
27865.8
29851.4
36345.5
28435.4
29747.8
29948.4
29380.4
30115.8
29963.4
29500.1
30060
30239.1
29017.3
29995.1
29962.1
30125.7
29234.1
30031.3
29879
29964.9
30167.4
32719.4
30304.6
30093.6
26590.3
26397
26581.1
26355.4
26746.9
26429.8
26713.2
26943.7
26411.3
26467.8
26431.9
26431.2
26348.6
26432
26033.5
26432
25817.2
26433.1
26470.8
26354.7
26432
22077.9
26433.9
21415.1
26432
22684.1
26430
26431.1
25764.3
26432
24270
25018.1
26430.7
25989.9
26429.7
26429.5
25035.9
26431.8
26345.6
26428.3
25401.2
26430.2
26664.4
26538.6
26430.9
26276
26430.6
26364.8
26436
26381.1
26423.8
26419.4
26153.3
26427.7
26555.5
26757.5
26449.1
26312.6
26428.9
26429.4
25934.6
26429
26608.4
26407.5
26430.1
26373.4
26429.9
26427.8
24633.1
26417.2
26874.5
26506.2
26421.5
25275.5
26428.9
25659.2
26426.1
26306.5
26448
27124.6
26435.1
25963.6
26431.1
27948.7
26428.9
25992.8
26450.1
25574.4
26446.8
25912.4
26447.4
26446.9
26438.7
25358.9
26423.9
26484.2
25417.5
26420.3
24543.1
23142
26422.7
25476.7
26418.9
23486.9
26417.7
25666.3
26433.7
23613.9
26423.7
25961.8
26449.5
23893.5
26439.6
25835.5
26425.2
26431.1
26606.2
26450.7
24649.7
26440.9
26506.9
26445.6
24647.8
26442.2
26291.6
26463.7
24350.2
26450.7
26101.5
26385.8
25512
27333.4
26444.3
24592.5
26400.4
26397.6
25040.6
26450.2
24200.1
26432.4
25871
26485.3
25273.4
26122.1
26473.7
24362.1
26524.4
25336.2
26493.7
23995
26513.3
24943
26504.7
24902.2
26484
25413.8
26480
24838.7
26471.2
26471.1
25120.2
26456.8
25082.4
25054
26458.5
25299.7
26452.2
26449.1
25124.8
26447.3
26337.5
26447.6
25662.3
26439.2
26439.9
26442
25982.1
25257.2
26216.6
26436.6
26438.5
26439
26588.9
26466.5
26434.8
26435.2
26436.2
26435.4
27155.2
26435.8
26540.9
26979
26436.1
27044.1
26436
26435.4
26437.2
26630.3
26745.6
26704.3
26703.5
26711.2
26656.8
26492.7
26673.1
26487.4
26485.8
26435.8
26393.8
26437.5
26478.3
26367.8
26018.5
26438.9
26381
25813.3
26441.5
26514.7
26444.7
26229.4
26442.7
26387.4
26450.1
26011.5
25630.6
26448.6
25912.9
26460.1
26457
25883.4
26464.1
26359.5
25502.1
26461.3
25671.1
26469.4
25978.4
26467
25782.6
26467.3
26257.3
26469.6
25366
26478.6
26672.5
26486.6
25364.7
26453.7
26468.1
25393.9
26426.6
26057.2
26430.1
25448.4
26455.1
24893.2
24922.2
26438.7
25762.8
26426.3
26451.4
24892.2
26442.9
25669.7
26430.5
25308.3
26421.1
25226.9
26428.9
23531.3
26438.1
25303.6
26440.6
23162.8
26416.3
24355.3
23707.9
26429.3
23622.8
26398.9
23249.4
26413.9
27012.9
26563.6
26923.5
26404.7
26662.5
26540.9
26426.8
26960.1
26449.7
27032.4
26120
26473.2
27960.6
26442.5
26437.6
26378.4
26438.3
26411.4
25926.1
26439.3
26834.1
26426.4
26426
26064.2
26426.7
26801.5
26426
25349.8
26419.3
25988.1
26425.9
25449.9
26407.8
25857.7
26411.4
25896.2
26413
25700.9
25470.3
26413.9
26161.9
26454.6
26416.1
26508.2
26428.7
26058.9
25967
26437.1
26547.4
26419.2
26422.4
26914.6
26418
27377.1
27024.3
26415
29440.8
26383
26396.3
28347.9
26389.2
28995.7
26383.8
28301.3
26411.5
27924.1
28144.2
26408.2
27908.1
26407.4
28324.8
26400.5
27486.1
26421
26423.1
27923.9
26407.4
27909.4
27942.4
26403.4
27562.8
26434.2
26426.6
28373.5
26430.2
27889.9
28015.6
26427.8
27493.1
26428.9
28594.2
26434.9
27180.4
26416.1
26438
26630.1
26392.7
27636.7
26420.9
26574.5
26787.1
26385.5
24853.7
24026.4
25669.3
25684.2
25596.3
25557.4
26105
25929.6
24590.7
25424.5
23961.9
25805.7
25467.6
23089.6
25609.2
24983.1
25825.7
23159.4
25776.4
25170.1
23644.2
24407.3
25796.9
25166.2
25446.3
25346.5
24997
25217
25520.1
25454.6
26271.7
25592.1
25231.3
25588.1
24705.2
25659.9
25515.1
26610.9
26897.4
26103.2
24764.3
25504.4
26842.8
25047.2
24953.5
25947.5
24591.2
24842.7
24745.1
27332.1
26008.7
25167.8
24984.6
24965.6
26674.4
24740.8
25639
24380.7
25426.7
24736.4
25018.6
26687.3
25286.4
24899.2
25620.7
26074.8
26670.5
25068.2
25624.4
25781.4
25543.8
25936
25098.4
26485.8
25644.8
24828.6
23604.5
25612.9
24378.6
25319
26386.4
23849.9
25239.2
24538.8
25026.6
25924.2
25097.1
24374.6
25521.9
24953.8
26259.3
26667.1
26705.3
25260.6
23979.2
25457.1
25348.5
25608.5
25568.1
24856.9
25014.2
25521.1
25207.9
24380.8
25202.4
24933.9
25782.7
24729.8
25649.1
25463.7
25091.9
25405.4
25587.3
25262.7
24330.4
25042.9
25837.6
25418.1
25654.6
25277.4
26050.7
25821.2
26175.8
26058.3
25786.7
24968.7
24679.9
25898.6
26467.6
25338.7
25424.6
25972.4
25198.6
26349.3
25576.9
25517.9
26338.7
25779
25419.9
25953.3
25851.8
25576.4
25951.9
26594.2
26770.8
25962.1
25667.8
25883.4
26058.2
26651
25923.9
26354.6
25636.2
26144.1
26495.9
26855.5
26962.8
26230.6
26127.8
26523.1
26857.6
26536.5
25903.6
26747
26844.4
26466
26627.6
26245.4
26402.7
26349.8
26253.5
26692.8
26572.2
26725.3
26667.8
26740.9
27375.1
26768.7
26533.3
26820.3
26861.3
27137.8
27000.7
26929.3
27020.1
26939.3
27204.3
27130.2
27067.4
26672.3
26433.1
26811.7
26705.4
26900.8
26763.8
26207.8
26225.5
27194.4
27020
26734.3
26613.2
26284.1
26243
27091.8
26551.5
26889.3
26737
26625.4
26855
26130.5
26886.5
26647.8
26718
26128.8
25601.6
26461.4
26511.9
26970.6
26419.9
26367.6
26775
25575.7
27105.6
26177.1
26133.5
26008.9
26340.7
25624.7
26542.6
26810.5
26323.8
26224.9
25682.4
26209.9
26615.1
25870
25319.5
25599.9
26975.7
24924.4
26609.6
25901.8
25194
25807.9
25744.3
25686.7
25995.2
26637.6
26092.4
26349.9
25681.7
25859.8
26276.3
26575.5
25794.3
24665.3
24961.2
26644.5
26493
25682.5
25339
25099.1
28444.5
26467.4
26806.7
26700
25983.8
27505.8
26282
27093.5
26689.4
25353.4
25747
26742.5
26640.8
25355.2
24589.8
26635.4
25016.9
26954.1
25960.2
26784.3
25044.5
25987.6
25233.2
26271.3
26992.7
26377.2
25191.8
26295.9
26152.9
26465.4
27136.4
25233.7
24977.5
25963.8
24470.9
24832.3
24986.3
26212.8
25820.3
24795.1
25836.9
25420
26853.8
25996.4
25771.2
25687.1
25593.7
27594.2
25647.2
25854
25430.1
24527.1
25562
26031.5
26018.5
26090.8
25845.5
25156.2
25762.5
26537.6
24879.9
26250.9
26237.4
25279.9
25391.5
24449
25859.5
26146.6
25272.6
25058.9
26033.4
24735.3
25229.8
23840.4
23542
25899.6
25088.5
25530.5
24217.2
26779.3
25237.2
25910.2
24661.3
23844.4
26379.5
24690.8
25317.2
25790
24443.2
23499.5
26639.2
23980.3
27387.3
26907
25876.9
26624.7
26084.9
25756.9
25477.9
25378.8
25232.8
25234.1
25566.7
25006.1
26435.2
26441.8
26435
26430.6
26429.1
26427.6
26429.9
26419.6
26420.5
26417
26428.8
26428.7
26425.9
26421.8
26421.5
26429.5
26421.4
26418
26421.6
26431
26432
26431.9
26432.9
26419.8
26417.1
26452.8
26431.2
26431
26430.5
26415.7
26415.4
26410.1
26426.4
26430.2
26427.2
26421.9
26415.8
26423.8
26421.1
26439
26438.8
26430.7
26427.9
26415.4
26430.1
26418.6
26429.5
26438.6
26425.1
26419
26416.7
26441.7
26459.2
26486.8
26426.8
26426.8
26431
26419.5
26418.5
26410.8
26418.4
26426.2
26429.4
26436.2
26431.9
26429.6
26437.7
26425.3
26435.2
26434
26446.4
26451.6
26395.4
26427.4
26412.7
26426.9
26414.2
26417
26452.8
26454.7
26447.1
26450.1
26438.5
26427.2
26426.5
26451.3
26427
26426.5
26417.2
26415.2
26423
26423.1
26427.8
26421.2
26420.1
26409.9
26419.7
26421.3
26422.9
26424.9
26429.5
26428
26420.1
26429.4
26424.7
26422.7
26406.1
26413.9
26436.9
26440.7
26434.4
26438.9
26442.3
26451.2
26441.8
26445
26435.3
26434.4
26418
26421.9
26435
26421.7
26430.3
26425.7
26424.1
26426.1
26434.2
26436.2
26429.9
26430.7
26430.4
26429.9
26428.5
26427.3
26430
26429
26431.5
26428
26425.8
26424.9
26430.8
26431.1
26428.4
26430.4
26430.6
26422.6
26420.8
26425.9
26437.1
26442.9
26440.6
26430.3
26440.6
26424.3
26421.7
26418.3
26422
26420.5
26423.9
26421
26431.5
26437.7
26435.6
26435.8
26429.9
26425.8
26420.2
26428.4
26431.9
26431.3
26431.9
26476.8
26428.8
26425.8
26429.9
26405.1
26409.3
26414.8
26420.2
26424.9
26435.4
26434.7
26437.2
26425.6
26422
26430.3
26430.8
26433.5
SCALARS Mach double 1
LOOKUP_TABLE default
0.728171
0.739191
0.725685
0.736495
0.698724
0.643486
0.76709
0.700813
0.730937
0.760502
0.719194
0.768397
0.742626
0.754644
0.77299
0.799108
0.743111
0.746908
0.847967
0.793322
0.712955
0.766291
0.718454
0.77914
0.789582
0.785536
0.80826
0.796168
0.785519
0.804421
0.796032
0.800016
0.780677
0.797999
0.822224
0.791169
0.815722
0.698865
0.819135
0.802241
0.815884
0.757186
0.766723
0.77264
0.806045
0.834336
0.803317
0.81702
0.810041
0.764354
0.805283
0.847475
0.779933
0.848277
0.808511
0.862184
0.787073
0.85125
0.748296
0.762788
0.854857
0.776416
0.843739
0.848821
0.815066
0.826885
0.880003
0.879758
0.829552
0.823738
0.858775
0.778985
0.831163
0.815407
0.878629
0.794694
0.816837
0.765846
0.912833
0.690556
0.910834
0.904616
0.743952
0.800543
0.908258
0.830964
0.73526
0.822579
0.766064
0.815972
0.934051
0.749094
0.93119
0.789588
0.881969
0.840636
0.797493
0.765858
0.795874
0.7865
0.802949
0.796026
0.790171
0.788582
0.804091
0.79132
0.785408
0.802637
0.762256
0.81426
0.801947
0.804738
0.798852
0.80413
0.803677
0.803874
0.805599
0.80794
0.799313
0.805966
0.804577
0.806374
0.806431
0.807594
0.810122
0.810179
0.803658
0.816144
0.790446
0.815699
0.825323
0.82213
0.841565
0.850484
0.819522
0.802202
0.831917
0.814036
0.812891
0.816102
0.812071
0.82512
0.806904
0.815283
0.816663
0.815184
0.822982
0.812316
0.820588
0.792719
0.828485
0.826813
0.765634
0.808262
0.848351
0.792546
0.811209
0.839766
0.803047
0.800451
0.79658
0.801013
0.702929
0.744648
0.835396
0.754577
0.822846
0.758698
0.813118
0.747673
0.802181
0.728142
0.796751
0.821336
0.761181
0.800559
0.761734
0.839804
0.741451
0.764867
0.82768
0.737708
0.771904
0.800726
0.739262
0.747192
0.786659
0.779552
0.75262
0.77902
0.7629
0.734296
0.793489
0.728784
0.755054
0.755377
0.812273
0.799975
0.80612
0.798623
0.802484
0.800009
0.7718
0.762685
0.799633
0.805646
0.799745
0.799896
0.75126
0.799668
0.764693
0.799854
0.835119
0.799862
0.772451
0.778175
0.799816
0.663406
0.79962
0.578178
0.799888
0.698973
0.799552
0.799881
0.78763
0.79965
0.695527
0.744403
0.799758
0.753133
0.79953
0.799842
0.731211
0.79947
0.799969
0.799773
0.750951
0.798933
0.800362
0.799715
0.800225
0.788289
0.79969
0.812701
0.800479
0.79526
0.798022
0.800448
0.76835
0.799462
0.804635
0.769803
0.799729
0.782303
0.799459
0.799848
0.774767
0.800579
0.821814
0.831106
0.799884
0.76851
0.799966
0.799358
0.798593
0.799633
0.831781
0.837328
0.799771
0.772385
0.799954
0.717984
0.799629
0.79382
0.800316
0.762431
0.799157
0.823941
0.799043
0.777039
0.799431
0.781713
0.800421
0.777716
0.800273
0.824178
0.797746
0.790663
0.800986
0.818174
0.798922
0.799272
0.797611
0.798555
0.774596
0.706396
0.799451
0.794588
0.798449
0.744932
0.79999
0.792906
0.799267
0.750499
0.798728
0.814966
0.799736
0.745578
0.799025
0.828275
0.797449
0.801772
0.824667
0.799833
0.791058
0.799613
0.819281
0.799891
0.786987
0.800303
0.798572
0.800208
0.777755
0.799234
0.865825
0.800574
0.763362
0.836187
0.801411
0.778198
0.800837
0.8001
0.777258
0.798527
0.800944
0.799598
0.806225
0.7984
0.790252
0.848186
0.800174
0.766931
0.79921
0.83118
0.799746
0.765363
0.799276
0.818454
0.801955
0.801458
0.798644
0.807693
0.801301
0.801697
0.799934
0.801081
0.798476
0.799578
0.793009
0.793315
0.800841
0.782112
0.799487
0.800516
0.787009
0.799906
0.840953
0.800549
0.805333
0.799775
0.800339
0.799938
0.812751
0.780171
0.806821
0.799972
0.800197
0.80006
0.81448
0.808459
0.799926
0.800171
0.800083
0.799982
0.826862
0.800134
0.814317
0.813826
0.799929
0.814764
0.800046
0.800072
0.799988
0.799244
0.807777
0.810964
0.809752
0.806479
0.806454
0.807738
0.815504
0.793891
0.800797
0.799993
0.791131
0.800204
0.799669
0.807977
0.794177
0.800317
0.828606
0.801541
0.80046
0.827416
0.800492
0.820936
0.799835
0.846833
0.800819
0.794707
0.772444
0.799816
0.809697
0.801323
0.799764
0.791259
0.801792
0.830834
0.773437
0.799431
0.781592
0.802123
0.834575
0.79929
0.797434
0.802008
0.828107
0.799375
0.788356
0.799864
0.851952
0.801035
0.805431
0.800249
0.799225
0.815818
0.800845
0.808272
0.797182
0.793827
0.800595
0.777569
0.791683
0.800356
0.820703
0.798622
0.800517
0.782029
0.800087
0.7936
0.799913
0.814802
0.799785
0.80601
0.799814
0.739434
0.799516
0.796843
0.800601
0.703374
0.797858
0.770222
0.73718
0.800957
0.732384
0.795507
0.785804
0.80117
0.837668
0.804265
0.820356
0.800797
0.803797
0.801972
0.794218
0.859154
0.796953
0.836848
0.786759
0.798809
0.826604
0.799782
0.800821
0.828542
0.799845
0.762932
0.772691
0.800492
0.821543
0.800443
0.799276
0.798222
0.80028
0.781974
0.799709
0.78514
0.80029
0.745371
0.799552
0.799313
0.799797
0.758879
0.798836
0.802233
0.79962
0.760482
0.749395
0.799527
0.792157
0.79958
0.799012
0.796337
0.799167
0.737382
0.812503
0.798747
0.790821
0.799526
0.799166
0.782688
0.799437
0.735821
0.776655
0.799291
0.783492
0.801167
0.798931
0.769163
0.800062
0.81859
0.799039
0.77875
0.799528
0.805829
0.801444
0.79969
0.80033
0.800376
0.830919
0.799055
0.725078
0.799304
0.80023
0.811909
0.799547
0.801226
0.816409
0.79974
0.729163
0.799915
0.800481
0.790573
0.800085
0.792791
0.797177
0.800226
0.779966
0.800676
0.802798
0.800397
0.751028
0.799959
0.800986
0.672762
0.801377
0.791362
0.800518
0.80689
0.77815
0.79827
0.776797
0.666025
0.776002
0.78392
0.775693
0.797681
0.799889
0.820191
0.726553
0.808855
0.722163
0.774414
0.843687
0.694741
0.698165
0.795628
0.77776
0.708499
0.814988
0.745592
0.742813
0.761642
0.824372
0.886656
0.758826
0.835786
0.761731
0.755283
0.679634
0.777116
0.818954
0.794994
0.784189
0.801845
0.826606
0.788629
0.786025
0.831198
0.829166
0.81994
0.813261
0.827899
0.846529
0.786482
0.773393
0.83228
0.75336
0.855247
0.760949
0.851474
0.80849
0.859004
0.764119
0.796525
0.831467
0.78658
0.799748
0.775902
0.858575
0.831851
0.76141
0.836158
0.788161
0.774743
0.861021
0.844704
0.832296
0.759113
0.805561
0.839062
0.809242
0.834347
0.801634
0.83333
0.80602
0.80935
0.767857
0.833524
0.763481
0.761237
0.824999
0.789963
0.833291
0.79073
0.790537
0.82894
0.759654
0.78254
0.839325
0.808182
0.815075
0.866551
0.728968
0.799626
0.784021
0.782921
0.798146
0.757011
0.79546
0.807975
0.803659
0.81555
0.782057
0.786661
0.775492
0.787184
0.852931
0.768335
0.828048
0.786582
0.813782
0.787711
0.856944
0.804937
0.718423
0.79266
0.814998
0.796923
0.805788
0.782945
0.836816
0.798128
0.828767
0.840477
0.810003
0.780953
0.778635
0.804118
0.82366
0.789112
0.799133
0.811276
0.790988
0.825497
0.782756
0.81233
0.814351
0.817484
0.798203
0.806722
0.797694
0.786687
0.838252
0.810797
0.821492
0.80753
0.790872
0.771272
0.831769
0.824648
0.803121
0.821664
0.781246
0.767642
0.827837
0.806876
0.827203
0.807511
0.812118
0.81864
0.821025
0.820359
0.782433
0.82019
0.824583
0.791995
0.809139
0.796772
0.805451
0.804906
0.796253
0.812564
0.802389
0.810226
0.799068
0.78493
0.826099
0.810397
0.803258
0.804714
0.810584
0.823913
0.806412
0.809853
0.803661
0.814904
0.822654
0.809168
0.814509
0.80405
0.797654
0.787906
0.802399
0.804573
0.805811
0.794278
0.802384
0.815641
0.830084
0.806159
0.806141
0.802875
0.808794
0.825093
0.804099
0.809718
0.811675
0.81593
0.799651
0.796022
0.807811
0.80963
0.817172
0.813578
0.790063
0.786253
0.834738
0.825221
0.812797
0.827238
0.826486
0.780376
0.830814
0.778362
0.807685
0.818225
0.803157
0.779703
0.817149
0.821286
0.791974
0.828817
0.809273
0.797784
0.841261
0.801257
0.792532
0.797349
0.830031
0.781137
0.829124
0.774774
0.792177
0.821978
0.792983
0.778701
0.804151
0.831273
0.805915
0.845277
0.84091
0.792311
0.83327
0.827457
0.801338
0.769677
0.754953
0.828715
0.819883
0.772933
0.788888
0.704241
0.71612
0.816433
0.83802
0.833117
0.774431
0.770319
0.849295
0.831757
0.843387
0.772532
0.776172
0.829703
0.791069
0.799501
0.775202
0.854373
0.797649
0.852211
0.784146
0.82199
0.775848
0.822492
0.783459
0.809173
0.822152
0.822151
0.785818
0.823238
0.767894
0.864196
0.831542
0.779686
0.778394
0.828891
0.780253
0.769903
0.765161
0.79987
0.811601
0.788847
0.749694
0.781004
0.830866
0.8001
0.803646
0.769358
0.882163
0.858858
0.790211
0.784782
0.793823
0.752249
0.805612
0.805837
0.792842
0.818378
0.769019
0.744638
0.813461
0.811567
0.778113
0.810041
0.822168
0.776986
0.809183
0.765428
0.787824
0.798915
0.726814
0.76869
0.795933
0.756781
0.768793
0.72677
0.735024
0.802202
0.68502
0.797709
0.72809
0.778771
0.786616
0.8095
0.739511
0.665091
0.802854
0.783529
0.762878
0.77767
0.770551
0.645302
0.824504
0.69911
0.785356
0.799383
0.768021
0.790206
0.782948
0.778585
0.785561
0.757251
0.737263
0.749547
0.762652
0.677502
0.800273
0.800441
0.800757
0.800792
0.799576
0.799988
0.800012
0.799899
0.800045
0.800098
0.799913
0.799791
0.799341
0.798477
0.800664
0.799945
0.79947
0.79967
0.800073
0.799814
0.800026
0.800079
0.79999
0.798737
0.799944
0.799364
0.800038
0.800186
0.800117
0.79987
0.799598
0.800086
0.799377
0.799707
0.800316
0.799658
0.799489
0.799736
0.800062
0.800026
0.800171
0.799683
0.799949
0.798051
0.800136
0.799163
0.799563
0.80017
0.800293
0.799285
0.79938
0.798225
0.799365
0.799032
0.799784
0.799558
0.799486
0.798631
0.800146
0.799345
0.799041
0.799581
0.800078
0.800126
0.798343
0.800896
0.800324
0.797948
0.799902
0.799689
0.800392
0.801094
0.795692
0.799245
0.801979
0.800708
0.79945
0.799696
0.800267
0.800658
0.799861
0.800161
0.800987
0.799853
0.800001
0.800666
0.80012
0.80049
0.799711
0.799845
0.800453
0.799543
0.800189
0.799542
0.800378
0.799599
0.799662
0.799477
0.80014
0.800171
0.799973
0.799959
0.799302
0.799748
0.799574
0.799273
0.799956
0.79967
0.800365
0.79959
0.800609
0.799107
0.800211
0.799713
0.799711
0.799663
0.800611
0.799836
0.798805
0.800016
0.79793
0.800912
0.800291
0.800264
0.799586
0.798701
0.800283
0.800339
0.799947
0.80008
0.799909
0.799918
0.800077
0.800247
0.80003
0.799627
0.800163
0.800124
0.79979
0.800111
0.800014
0.800014
0.80007
0.800148
0.79975
0.800077
0.800065
0.799805
0.800235
0.800378
0.800456
0.801165
0.800904
0.799703
0.799702
0.799217
0.799677
0.799902
0.799229
0.800248
0.800299
0.800351
0.800151
0.800125
0.800134
0.799891
0.801063
0.800483
0.799889
0.800136
0.800715
0.798212
0.799845
0.799983
0.800068
0.797723
0.798394
0.800357
0.798047
0.800384
0.80006
0.79973
0.800096
0.80033
0.799698
0.800127
0.799941
0.799917
